<?xml version="1.0" encoding="UTF-8"?>
<svg viewBox="0 0 999 999" xmlns="http://www.w3.org/2000/svg">
 <path d="m0 499.5v-499.5h999v999h-999v-499.5zm725-333.5l1 0.5 1 0.5 1 0.5 1.5 0.3 1.5 0.2-0.2-4-0.3-4-0.5-3q-0.5-3-9-33l-8.5-30-0.3-4-0.2-4 1 0.2 1 0.3 0.2 0.3 0.3 0.2 0.3 0.2 0.2 0.3 0.2 0.3 0.3 0.2 0.3 0.2 0.2 0.3 0.2 0.3 0.3 0.2 0.5 1 0.5 1 0.5 1 0.5 1 13 26q13 26 28.3 48.8 15.2 22.7 30 41 14.7 18.2 31.7 37.2t28.5 36 19 28.5 15.8 19.3q8.2 7.7 19.2 13.7t20.2 10.3q9.3 4.2 10.8 6.7t0.8 5.7q-0.8 3.3-11.8 14.3t-19.5 16-11.5 4-12-12.5-16-15.5-11-4h-4l-1 0.5-1 0.5-0.2 0.3-0.3 0.2-0.3 0.2-0.2 0.3-0.2 0.3-0.3 0.2-0.5 1-0.5 1 1 6.5q1 6.5 10.7 25.3 9.8 18.7 24.3 39.2t29.7 36.8q15.3 16.2 15.6 16.4l0.2 0.3 0.2 0.3 0.3 0.2 0.5 1 0.5 1 0.3 0.2 0.2 0.3 0.2 0.3 0.3 0.2 0.5 1 0.5 1v2l-0.3 0.2-0.2 0.3h-3.5q-3.5 0-10.5 0h-7l-1 0.3-1 0.2-0.2 1-0.3 1v4l5.3 9.2q5.2 9.3 22.7 29.3t29.7 35.3q12.3 15.2 14.8 19.2t3 5l0.5 1 0.5 1 0.5 1 0.5 1 0.5 1 0.3 2 0.2 2-1.5-0.2-1.5-0.3-1-0.5-1-0.5-0.2-0.3-0.3-0.2-0.3-0.2-0.2-0.3-1-0.5-1-0.5-0.2-0.3q-0.3-0.2-6-5-5.8-4.7-30.8-28.7t-35-36-16.8-23.7q-6.7-11.8-23.2-59.3t-23-59.5-17-22.5-22.2-19.3q-11.8-8.7-20.8-11.7t-12.5-2l-3.5 1-0.2 0.3-0.3 0.2-0.3 0.2-0.2 0.3-0.2 0.3-0.3 0.2-0.3 0.2-0.2 0.3-0.2 0.3-0.3 0.2-0.3 0.2-0.2 0.3-0.2 0.3-0.3 0.2 0.5 5.5q0.5 5.5 4.8 10.7 4.2 5.3 8.7 8.3t12.7 6.7q8.3 3.8 16.3 10.8t13.7 14.2q5.8 7.3 6 7.6l0.3 0.2 0.3 0.2 0.2 0.3 0.2 0.3 0.3 0.2 0.3 1 0.2 1-1 0.2-1 0.3-1 0.5q-1 0.5-11 6t-24.5 10l-14.5 4.5h-7l-0.2-0.3-0.3-0.2v-2l0.5-1.5 0.5-1.5 0.5-1q0.5-1 3-8t1.5-12.5-6.3-13q-5.2-7.5-12-12-6.7-4.5-27-14.3-20.2-9.7-24-13.4-3.7-3.8-5.2-10.3t-3-10-7.8-9.7q-6.2-6.3-15-14l-8.7-7.8-0.3-0.2-0.2-0.3-0.2-0.3-0.3-0.2-0.5-1-0.5-1-0.3-0.2-0.2-0.3-0.2-0.3-0.3-0.2-0.3-2.5-0.2-2.5 4.5 1.2q4.5 1.3 6 1.6l1.5 0.2-0.2-3q-0.3-3-0.3-9.5t2-9 2-4.5-6.5-8.5-16.2-11.7q-9.8-5.3-19.8-7.3t-16-5.5-22-3.5-21.5-1.5-10.5-2-8.2 1.8q-3.3 2.2-9 6.4-5.8 4.3-17.8 5-12 0.8-13.2 9.3-1.3 8.5-3.3 13t-7.7 8.3q-5.8 3.7-10.6 7-4.7 3.2-5.2 15.7t2 29 6.2 24.7q3.8 8.3 8.8 11.8t19.5 4 22 2 29.5 11l22 9.5 2 0.5 2 0.5 1.5 0.3 1.5 0.2-0.2-2-0.3-2-0.5-1.5-0.5-1.5-0.5-1q-0.5-1-4.5-7t-13.5-14.5-18.8-14.3q-9.2-5.7-23.2-13.2l-14-7.5-0.2-0.3-0.3-0.2-0.5-1-0.5-1-0.3-0.2-0.2-0.3-0.2-0.3-0.3-0.2v-4l0.3-0.2 0.2-0.3 1-0.5 1-0.5 10-1q10-1 12.8-4.7 2.7-3.8 8.4-16 5.8-12.3 11.3-17.8t12-8 10-2.5 6 0.5l2.5 0.5 1 0.5 1 0.5 1 0.5 1 0.5 1 0.5 1 0.5 0.2 0.3 0.3 0.2 0.3 0.2 0.2 0.3 0.2 0.3 0.3 0.2v3l-0.3 0.2-0.2 0.3-0.2 0.3-0.3 0.2-0.3 0.2-0.2 0.3-1 0.5-1 0.5-0.2 0.3-0.3 0.2-0.3 0.2-0.2 0.3-1.5 0.5q-1.5 0.5-4 1.5t-9 5.5l-6.5 4.5-0.2 0.3-0.3 0.2-0.5 1-0.5 1v7l0.3 0.2 0.2 0.3 0.2 0.3 0.3 0.2 0.3 0.2 0.2 0.3 1.5 0.5 1.5 0.5h19q19 0 23 1.5t5 2l1 0.5 0.2 0.3 0.3 0.2 0.3 0.2 0.2 0.3 0.2 0.3 0.3 0.2 0.3 0.2 0.2 0.3 1 0.5 1 0.5 0.2 0.3 0.3 0.2 0.3 0.2 0.2 0.3 0.2 0.3 0.3 0.2 0.3 0.2 0.2 0.3 0.2 0.3 0.3 0.2v2l-0.3 0.2-0.2 0.3-7 0.5q-7 0.5-11 1l-4 0.5-1.5 0.5-1.5 0.5-0.2 0.3-0.3 0.2-0.3 0.2-0.2 0.3-0.2 0.3-0.3 0.2-0.3 0.2-0.2 0.3-0.2 0.3-0.3 0.2v3l0.3 0.2 0.2 0.3 0.2 0.3 0.3 0.2 0.3 1 0.2 1 1 0.2 1 0.3 8 5.5q8 5.5 8.2 5.8l0.3 0.2 0.3 0.2 0.2 0.3 0.2 0.3 0.3 0.2 0.5 1 0.5 1v6l-0.3 0.2-0.2 0.3-1 0.5q-1 0.5-7.2 1.8l-6.3 1.2-0.3 0.2-0.2 0.3-0.2 0.3-0.3 0.2-0.5 1-0.5 1-0.3 0.2-0.2 0.3 0.2 0.3 0.3 0.2 0.5 1 0.5 1 0.5 1 0.5 1 4 4.5q4 4.5 12.7 10.7 8.8 6.3 26 16.6 17.3 10.2 32 22 14.8 11.7 16.6 14 1.7 2.2 2 2.4l0.2 0.3 0.2 0.3 0.3 0.2 0.5 1 0.5 1 0.3 2.5 0.2 2.5-1.5 0.2-1.5 0.3-2 0.5q-2 0.5-23 2t-30.5 4l-9.5 2.5-1 0.5-1 0.5-1 0.5-1 0.5-0.2 0.3-0.3 0.2-0.3 2-0.2 2 1 0.2 1 0.3 1.5 0.5 1.5 0.5 45 7.5q45 7.5 65 14.5t34.2 15.3q14.3 8.2 25.3 17.7t20 19.5 20 27.5 18.5 35 10.5 31.5 4.5 37.5 1.5 28.5v5l-0.3 3-0.2 3-1-0.2-1-0.3-0.2-0.3-0.3-0.2-0.5-1.5-0.5-1.5-0.5-1-0.5-1-0.5-1.5q-0.5-1.5-1-3t-6-12.5l-5.5-11-0.3-0.2-0.2-0.3-1-0.5-1-0.5-0.2-0.3-0.3-0.2-0.3-0.2-0.2-0.3h-3l-0.2 0.3-0.3 0.2-0.3 0.2-0.2 0.3-0.2 0.3-0.3 0.2-0.3 0.2-0.2 0.3-0.2 0.3-0.3 0.2-2.5 6q-2.5 6-11.5 35.5t-20.5 58-17.8 39.3q-6.2 10.7-7.4 12-1.3 1.2-1.6 1.4l-0.2 0.3-0.2 0.3-0.3 0.2-0.3 0.2-0.2 0.3-0.2 0.3-0.3 0.2-0.3 0.2-0.2 0.3-0.2 0.3-0.3 0.2-0.3 0.2-0.2 0.3-0.2 0.3-0.3 0.2-0.3 0.2-0.2 0.3-1 0.5-1 0.5-1 0.3-1 0.2 0.2-1.5 0.3-1.5 0.5-1.5 0.5-1.5 0.5-1.5q0.5-1.5 2.5-8.5t4-24l2-17-0.3-2-0.2-2-1 0.2-1 0.3-1 0.5-1 0.5-1.5 0.5q-1.5 0.5-41.5 19.5t-57.5 24.5-48.5 8.5l-31 3-0.2 0.3-0.3 0.2v-2l0.3-0.2 0.2-0.3 1-0.5 1-0.5 1-0.5 1-0.5 0.2-0.3 0.3-0.2 0.3-0.2 0.2-0.3 13-7.7q13-7.8 13.5-9 0.5-1.3 0.7-1.6l0.3-0.2 0.5-1 0.5-1v-3l-0.5-1-0.5-1-0.3-0.2q-0.2-0.3-5.2-3.8t-45-19.5-56.5-23.5l-16.5-7.5-0.2-0.3-0.3-0.2-0.3-0.2-0.2-0.3-1-0.5-1-0.5-0.2-0.3-0.3-0.2-0.3-2-0.2-2 1-0.2 1-0.3 5.5-1q5.5-1 6.5-1.5l1-0.5 0.2-0.3 0.3-0.2 0.5-1 0.5-1 0.3-0.2 0.2-0.3-0.2-0.3-0.3-0.2-0.5-1.5-0.5-1.5-15.5-18.5q-15.5-18.5-45.2-49.7-29.8-31.3-53.3-53.3t-35-29-22.5-10.5-23-3-21 5-16.2 11.8q-7.3 7.2-12.3 16.7t-7 19.5-1.5 24.5 5 29.5 12.2 28.8q7.8 13.7 18.3 25.2t23.5 20 42.5 20.5 62.5 22.5 40 12 10.5 1.5h3.5l0.2-0.3 0.3-0.2v-5l-0.5-1.5q-0.5-1.5-7.5-14.5l-7-13-0.5-1.5-0.5-1.5v-3l0.3-0.2 0.2-0.3h5l1 0.5 1 0.5 10.8 7.7q10.7 7.8 22.4 19 11.8 11.3 25.6 26.6 13.7 15.2 32.2 40.2t41.5 57 36 48.5 13.5 17.5l0.5 1 0.3 0.2 0.2 0.3 0.2 0.3 0.3 0.2 0.5 1 0.5 1v5l-0.3 0.2-0.2 0.3h-4l-1.5-0.5-1.5-0.5-1.5-0.5q-1.5-0.5-10.5-5.5t-46.8-31.3q-37.7-26.2-62-42-24.2-15.7-46.2-26.2t-45-17.5l-23-7-1-0.5-1-0.5-1-0.5-1-0.5-0.2-0.3-0.3-0.2v-4l0.3-0.2 0.2-0.3 1.5-0.5 1.5-0.5 1-0.5 1-0.5 16-1.5q16-1.5 30-2.5t16-1.5l2-0.5 1-0.5 1-0.5 0.2-0.3 0.3-0.2 0.3-0.2 0.2-0.3 0.2-0.3 0.3-0.2v-3l-0.3-0.2-0.2-0.3-0.2-0.3-0.3-0.2-0.3-0.2-0.2-0.3-0.2-0.3-0.3-0.2-0.3-0.2-0.2-0.3-1-0.5-1-0.5-0.2-0.3q-0.3-0.2-7-3.4-6.8-3.3-35.8-12.3t-68-20-56-19-30.5-18.5-27-25.5-20.3-26.7q-6.7-11.8-9.7-24.3t-3-44.5 2.5-45 7.5-24.5 10.7-18.7q5.8-7.3 14.8-13.8t19.5-10.5 29-6.5 31.5-1.5 25.5 6 28.5 16 51.5 43 64.3 57.7q28.7 25.8 49.4 41.6 20.8 15.7 38.8 24.7t33.5 13 34 5 33.5-0.5 28.5-6 21.5-10 14.2-13.2q6.3-7.8 10.3-19.8t4.5-25-2-26-7.5-24.5-8.7-15.3l-3.8-3.7-1-0.5-1-0.5-0.2-0.3-0.3-0.2-0.3 0.2-0.2 0.3-1 0.5q-1 0.5-2 1t-5.5 6l-4.5 5.5-0.2 0.3-0.3 0.2-0.3 0.2-0.2 0.3-0.2 0.3-0.3 0.2-0.3 0.2-0.2 0.3h-2l-0.2-0.3-0.3-0.2-0.3-0.2-0.2-0.3-0.2-0.3-0.3-0.2-0.5-1-0.5-1-0.5-1.5q-0.5-1.5-5-9t-11.8-13.7l-7.2-6.3-0.2-0.3-0.3-0.2-0.3-0.2-0.2-0.3-1-0.5-1-0.5h-5l-0.2 0.3-0.3 0.2v7l4.5 16q4.5 16 4.5 20.5v4.5l-0.3 0.2-0.2 0.3h-3l-1-0.5-1-0.5-0.2-0.3-0.3-0.2-0.3-0.2-0.2-0.3-0.2-0.3-0.3-0.2-0.3-0.2-0.2-0.3-0.2-0.3-0.3-0.2-0.5-1q-0.5-1-10-15.5t-19-24-17.2-13.7l-7.8-4.3h-5l-1 0.5-1 0.5-0.2 0.3-0.3 0.2 1 9.5q1 9.5 9 37t8.3 32l0.2 4.5h-3l-0.2-1-0.3-1-0.3-0.2-0.2-0.3-0.2-0.3-0.3-0.2-0.3-0.2-0.2-0.3-0.2-0.3-0.3-0.2-0.3-0.2-0.2-0.3-0.2-0.3-0.3-0.2-0.5-1q-0.5-1-9-15.5t-20-31-18.8-23.7q-7.2-7.3-29.2-18.3t-50.5-21.5-41-12.8l-12.5-2.2 0.2 3 0.3 3 5.5 13q5.5 13 13.5 28.5t8.5 17l0.5 1.5 0.5 1 0.5 1 0.3 2.5 0.2 2.5-1.5-0.2-1.5-0.3-1-0.5-1-0.5-1-0.5-1-0.5-0.2-0.3-0.3-0.2-0.3-0.2-0.2-0.3-0.2-0.3q-0.3-0.2-9.6-8-9.2-7.7-18-19.4-8.7-11.8-21.2-37.8t-23.2-47.8l-10.8-21.7-0.2-0.3-0.3-0.2-0.5-1-0.5-1-0.3-0.2-0.2-0.3-0.2-0.3-0.3-0.2-0.3-0.2-0.2-0.3-0.2-0.3-0.3-0.2-0.3-0.2-0.2-0.3h-2l-0.2 0.3-0.3 0.2-0.3 0.2-0.2 0.3-0.2 0.3-0.3 0.2-0.5 1.5-0.5 1.5-1.5 20.5q-1.5 20.5-2 23.5l-0.5 3-0.5 1.5-0.5 1.5-0.5 1-0.5 1-0.3 0.2-0.2 0.3h-2l-1-0.5-1-0.5-0.2-0.3-0.3-0.2-0.5-1-0.5-1-0.5-1-0.5-1-0.5-1.5q-0.5-1.5-1-2.5t-4-17.5-3.5-40.5 4.5-52.5 5-39l0.5-10.5-0.3-0.2-0.2-0.3-0.2-0.3-0.3-0.2-0.3-0.2-0.2-0.3-0.2-0.3-0.3-0.2-0.3-0.2-0.2-0.3h-4l-1 0.5-1 0.5-0.2 0.3-0.3 0.2-0.3 0.2-0.2 0.3-5.8 5.7q-5.7 5.8-12.7 16.3t-7.3 10.7l-0.2 0.3-0.2 0.3-0.3 0.2-0.5 1-0.5 1-0.3 0.2-0.2 0.3-0.2 0.3-0.3 0.2-0.5 1-0.5 1-0.3 0.2-0.2 0.3-0.2 0.3-0.3 0.2-0.3 0.2-0.2 0.3-0.2 0.3-0.3 0.2v-2l0.5-2.5 0.5-2.5 0.5-2.5q0.5-2.5 1.5-8t5.5-19 13.5-29.5 21.5-32 23-29 11.5-17l1-4-0.5-1-0.5-1-0.3-0.2-0.2-0.3-0.2-0.3-0.3-0.2-0.3-0.2-0.2-0.3-1-0.5-1-0.5-1-0.5q-1-0.5-7.5-1t-11 1-14.5 8.5-24.8 22.7q-14.7 15.8-28.2 29.8l-13.5 14-0.3 0.2-0.2 0.3-0.2 0.3-0.3 0.2-0.3 0.2-0.2 0.3-0.2 0.3-0.3 0.2-0.3 0.2-0.2 0.3-0.2 0.3-0.3 0.2-0.3 0.2-0.2 0.3-1 0.5-1 0.5h-2l-0.2-0.3-0.3-0.2v-2l0.5-2 0.5-2 0.5-1.5q0.5-1.5 9.5-21l9-19.5v-8l-0.3-0.2-0.2-0.3h-2l-1 0.5-1 0.5-1 0.5-1 0.5-0.2 0.3-0.3 0.2-0.3 0.2-0.2 0.3-0.2 0.3-0.3 0.2-46.3 48.8q-46.2 48.7-58.4 59.4-12.3 10.8-12.6 11l-0.2 0.3-0.2 0.3-0.3 0.2-0.3 0.2-0.2 0.3-0.2 0.3-0.3 0.2-0.3 0.2-0.2 0.3-1 0.5-1 0.5-1 0.5-1 0.5-1 0.3-1 0.2 0.2-2 0.3-2 0.5-1 0.5-1 0.5-1 0.5-1 0.3-0.2 0.2-0.3 0.2-0.3q0.3-0.2 2.3-4.2t43.3-64.2q41.2-60.3 48-72.6l6.7-12.2 0.5-2.5 0.5-2.5v-1l-0.3-1-0.2-1-2 0.2-2 0.3-1 0.5-1 0.5-1 0.5-1 0.5-10.8 9.7q-10.7 9.8-67.2 76.8t-74.2 84.8q-17.8 17.7-21.3 20.2t-4.5 3l-1 0.5-1 0.5-1 0.5-0.2 0.3-0.3 0.2-0.3 0.2-0.2 0.3-1.5 0.5-1.5 0.5h-2l-0.2-0.3-0.3-0.2v-2l0.5-1 0.5-1 0.5-1 0.5-1 0.3-0.2 0.2-0.3 0.2-0.3 0.3-0.2 0.5-1q0.5-1 12.2-16.2 11.8-15.3 49-67 37.3-51.8 58.3-83.8l21-32 0.5-1 0.5-1 0.5-1 0.5-1 0.3-1.5 0.2-1.5-1.5 0.2-1.5 0.3-1 0.5-1 0.5-0.2 0.3-0.3 0.2-0.3 0.2-0.2 0.3-0.2 0.3-0.3 0.2-0.3 0.2-0.2 0.3-0.2 0.3-0.3 0.2-0.3 0.2-0.2 0.3-12.2 12.3q-12.3 12.2-38.3 44.2t-55.7 70.2q-29.8 38.3-51 62-21.3 23.8-37 39.6-15.8 15.7-29.3 25.7t-19 13-7 3.5l-1.5 0.5-1.5 0.5-1.5 0.5-2.5 0.3-2.5 0.2 0.2-2 0.3-2 0.5-1 0.5-1 0.3-0.2 0.2-0.3 0.2-0.3 0.3-0.2 22-23q22-23 50-60t79-109.5 67.5-92 42.2-45.3q25.8-25.7 45.3-40.7t36-24 36.5-15.5 33.5-8.5 37-1.5 40.5 4.5 34 11 34.2 18.3q17.3 11.2 32.8 25.2t19 19 3.2 7.8q-0.2 2.7-6.7 2.2t-21.5-4.5-31.5-5-26 0.5-17.3 7.2q-7.7 5.8-15.2 14.8t-9.5 14-1.5 17.5 2.2 15.7q1.8 3.3 16.3 3.3t21.5-2.5 8.2-3.8q1.3-1.2 0.8-5.2t-3.5-8.5-2.7-5.7q0.2-1.3 7.7-1.3t25.5 4 23.5 3.5 5.3-3.2q-0.3-2.8-4.3-7.8t-3.5-7 12.2 2.2q11.8 4.3 41.8 21.3t35 18.5 4.8-2.2q-0.3-3.8-11.8-29.8t-19.5-44-8.3-20q-0.2-2 2.6-0.5 2.7 1.5 30 37.3 27.2 35.7 34.7 43.7t8.5 8.5z" fill="#fff" fill-rule="evenodd" stroke="#fff" stroke-width=".5"/>
 <path d="m725 166l1 0.5 1 0.5 1 0.5 1.5 0.3 1.5 0.2-0.2-4-0.3-4-0.5-3q-0.5-3-9-33l-8.5-30-0.3-4-0.2-4 1 0.2 1 0.3 0.2 0.3 0.3 0.2 0.3 0.2 0.2 0.3 0.2 0.3 0.3 0.2 0.3 0.2 0.2 0.3 0.2 0.3 0.3 0.2 0.5 1 0.5 1 0.5 1 0.5 1 13 26q13 26 28.3 48.8 15.2 22.7 30 41 14.7 18.2 31.7 37.2t28.5 36 19 28.5 15.8 19.3q8.2 7.7 19.2 13.7t20.2 10.3q9.3 4.2 10.8 6.7t0.8 5.7q-0.8 3.3-11.8 14.3t-19.5 16-11.5 4-12-12.5-16-15.5-11-4h-4l-1 0.5-1 0.5-0.2 0.3-0.3 0.2-0.3 0.2-0.2 0.3-0.2 0.3-0.3 0.2-0.5 1-0.5 1 1 6.5q1 6.5 10.7 25.3 9.8 18.7 24.3 39.2t29.7 36.8q15.3 16.2 15.6 16.4l0.2 0.3 0.2 0.3 0.3 0.2 0.5 1 0.5 1 0.3 0.2 0.2 0.3 0.2 0.3 0.3 0.2 0.5 1 0.5 1v2l-0.3 0.2-0.2 0.3h-3.5q-3.5 0-10.5 0h-7l-1 0.3-1 0.2-0.2 1-0.3 1v4l5.3 9.2q5.2 9.3 22.7 29.3t29.7 35.3q12.3 15.2 14.8 19.2t3 5l0.5 1 0.5 1 0.5 1 0.5 1 0.5 1 0.3 2 0.2 2-1.5-0.2-1.5-0.3-1-0.5-1-0.5-0.2-0.3-0.3-0.2-0.3-0.2-0.2-0.3-1-0.5-1-0.5-0.2-0.3q-0.3-0.2-6-5-5.8-4.7-30.8-28.7t-35-36-16.8-23.7q-6.7-11.8-23.2-59.3t-23-59.5-17-22.5-22.2-19.3q-11.8-8.7-20.8-11.7t-12.5-2l-3.5 1-0.2 0.3-0.3 0.2-0.3 0.2-0.2 0.3-0.2 0.3-0.3 0.2-0.3 0.2-0.2 0.3-0.2 0.3-0.3 0.2-0.3 0.2-0.2 0.3-0.2 0.3-0.3 0.2 0.5 5.5q0.5 5.5 4.8 10.7 4.2 5.3 8.7 8.3t12.7 6.7q8.3 3.8 16.3 10.8t13.7 14.2q5.8 7.3 6 7.6l0.3 0.2 0.3 0.2 0.2 0.3 0.2 0.3 0.3 0.2 0.3 1 0.2 1-1 0.2-1 0.3-1 0.5q-1 0.5-11 6t-24.5 10l-14.5 4.5h-7l-0.2-0.3-0.3-0.2v-2l0.5-1.5 0.5-1.5 0.5-1q0.5-1 3-8t1.5-12.5-6.3-13q-5.2-7.5-12-12-6.7-4.5-27-14.3-20.2-9.7-24-13.4-3.7-3.8-5.2-10.3t-3-10-7.8-9.7q-6.2-6.3-15-14l-8.7-7.8-0.3-0.2-0.2-0.3-0.2-0.3-0.3-0.2-0.5-1-0.5-1-0.3-0.2-0.2-0.3-0.2-0.3-0.3-0.2-0.3-2.5-0.2-2.5 4.5 1.2q4.5 1.3 6 1.6l1.5 0.2-0.2-3q-0.3-3-0.3-9.5t2-9 2-4.5-6.5-8.5-16.2-11.7q-9.8-5.3-19.8-7.3t-16-5.5-22-3.5-21.5-1.5-10.5-2-8.2 1.8q-3.3 2.2-9 6.4-5.8 4.3-17.8 5-12 0.8-13.2 9.3-1.3 8.5-3.3 13t-7.7 8.3q-5.8 3.7-10.6 7-4.7 3.2-5.2 15.7t2 29 6.2 24.7q3.8 8.3 8.8 11.8t19.5 4 22 2 29.5 11l22 9.5 2 0.5 2 0.5 1.5 0.3 1.5 0.2-0.2-2-0.3-2-0.5-1.5-0.5-1.5-0.5-1q-0.5-1-4.5-7t-13.5-14.5-18.8-14.3q-9.2-5.7-23.2-13.2l-14-7.5-0.2-0.3-0.3-0.2-0.5-1-0.5-1-0.3-0.2-0.2-0.3-0.2-0.3-0.3-0.2v-4l0.3-0.2 0.2-0.3 1-0.5 1-0.5 10-1q10-1 12.8-4.7 2.7-3.8 8.4-16 5.8-12.3 11.3-17.8t12-8 10-2.5 6 0.5l2.5 0.5 1 0.5 1 0.5 1 0.5 1 0.5 1 0.5 1 0.5 0.2 0.3 0.3 0.2 0.3 0.2 0.2 0.3 0.2 0.3 0.3 0.2v3l-0.3 0.2-0.2 0.3-0.2 0.3-0.3 0.2-0.3 0.2-0.2 0.3-1 0.5-1 0.5-0.2 0.3-0.3 0.2-0.3 0.2-0.2 0.3-1.5 0.5q-1.5 0.5-4 1.5t-9 5.5l-6.5 4.5-0.2 0.3-0.3 0.2-0.5 1-0.5 1v7l0.3 0.2 0.2 0.3 0.2 0.3 0.3 0.2 0.3 0.2 0.2 0.3 1.5 0.5 1.5 0.5h19q19 0 23 1.5t5 2l1 0.5 0.2 0.3 0.3 0.2 0.3 0.2 0.2 0.3 0.2 0.3 0.3 0.2 0.3 0.2 0.2 0.3 1 0.5 1 0.5 0.2 0.3 0.3 0.2 0.3 0.2 0.2 0.3 0.2 0.3 0.3 0.2 0.3 0.2 0.2 0.3 0.2 0.3 0.3 0.2v2l-0.3 0.2-0.2 0.3-7 0.5q-7 0.5-11 1l-4 0.5-1.5 0.5-1.5 0.5-0.2 0.3-0.3 0.2-0.3 0.2-0.2 0.3-0.2 0.3-0.3 0.2-0.3 0.2-0.2 0.3-0.2 0.3-0.3 0.2v3l0.3 0.2 0.2 0.3 0.2 0.3 0.3 0.2 0.3 1 0.2 1 1 0.2 1 0.3 8 5.5q8 5.5 8.2 5.8l0.3 0.2 0.3 0.2 0.2 0.3 0.2 0.3 0.3 0.2 0.5 1 0.5 1v6l-0.3 0.2-0.2 0.3-1 0.5q-1 0.5-7.2 1.8l-6.3 1.2-0.3 0.2-0.2 0.3-0.2 0.3-0.3 0.2-0.5 1-0.5 1-0.3 0.2-0.2 0.3 0.2 0.3 0.3 0.2 0.5 1 0.5 1 0.5 1 0.5 1 4 4.5q4 4.5 12.7 10.7 8.8 6.3 26 16.6 17.3 10.2 32 22 14.8 11.7 16.6 14 1.7 2.2 2 2.4l0.2 0.3 0.2 0.3 0.3 0.2 0.5 1 0.5 1 0.3 2.5 0.2 2.5-1.5 0.2-1.5 0.3-2 0.5q-2 0.5-23 2t-30.5 4l-9.5 2.5-1 0.5-1 0.5-1 0.5-1 0.5-0.2 0.3-0.3 0.2-0.3 2-0.2 2 1 0.2 1 0.3 1.5 0.5 1.5 0.5 45 7.5q45 7.5 65 14.5t34.2 15.3q14.3 8.2 25.3 17.7t20 19.5 20 27.5 18.5 35 10.5 31.5 4.5 37.5 1.5 28.5v5l-0.3 3-0.2 3-1-0.2-1-0.3-0.2-0.3-0.3-0.2-0.5-1.5-0.5-1.5-0.5-1-0.5-1-0.5-1.5q-0.5-1.5-1-3t-6-12.5l-5.5-11-0.3-0.2-0.2-0.3-1-0.5-1-0.5-0.2-0.3-0.3-0.2-0.3-0.2-0.2-0.3h-3l-0.2 0.3-0.3 0.2-0.3 0.2-0.2 0.3-0.2 0.3-0.3 0.2-0.3 0.2-0.2 0.3-0.2 0.3-0.3 0.2-2.5 6q-2.5 6-11.5 35.5t-20.5 58-17.8 39.3q-6.2 10.7-7.4 12-1.3 1.2-1.6 1.4l-0.2 0.3-0.2 0.3-0.3 0.2-0.3 0.2-0.2 0.3-0.2 0.3-0.3 0.2-0.3 0.2-0.2 0.3-0.2 0.3-0.3 0.2-0.3 0.2-0.2 0.3-0.2 0.3-0.3 0.2-0.3 0.2-0.2 0.3-1 0.5-1 0.5-1 0.3-1 0.2 0.2-1.5 0.3-1.5 0.5-1.5 0.5-1.5 0.5-1.5q0.5-1.5 2.5-8.5t4-24l2-17-0.3-2-0.2-2-1 0.2-1 0.3-1 0.5-1 0.5-1.5 0.5q-1.5 0.5-41.5 19.5t-57.5 24.5-48.5 8.5l-31 3-0.2 0.3-0.3 0.2v-2l0.3-0.2 0.2-0.3 1-0.5 1-0.5 1-0.5 1-0.5 0.2-0.3 0.3-0.2 0.3-0.2 0.2-0.3 13-7.7q13-7.8 13.5-9 0.5-1.3 0.7-1.6l0.3-0.2 0.5-1 0.5-1v-3l-0.5-1-0.5-1-0.3-0.2q-0.2-0.3-5.2-3.8t-45-19.5-56.5-23.5l-16.5-7.5-0.2-0.3-0.3-0.2-0.3-0.2-0.2-0.3-1-0.5-1-0.5-0.2-0.3-0.3-0.2-0.3-2-0.2-2 1-0.2 1-0.3 5.5-1q5.5-1 6.5-1.5l1-0.5 0.2-0.3 0.3-0.2 0.5-1 0.5-1 0.3-0.2 0.2-0.3-0.2-0.3-0.3-0.2-0.5-1.5-0.5-1.5-15.5-18.5q-15.5-18.5-45.2-49.7-29.8-31.3-53.3-53.3t-35-29-22.5-10.5-23-3-21 5-16.2 11.8q-7.3 7.2-12.3 16.7t-7 19.5-1.5 24.5 5 29.5 12.2 28.8q7.8 13.7 18.3 25.2t23.5 20 42.5 20.5 62.5 22.5 40 12 10.5 1.5h3.5l0.2-0.3 0.3-0.2v-5l-0.5-1.5q-0.5-1.5-7.5-14.5l-7-13-0.5-1.5-0.5-1.5v-3l0.3-0.2 0.2-0.3h5l1 0.5 1 0.5 10.8 7.7q10.7 7.8 22.4 19 11.8 11.3 25.6 26.6 13.7 15.2 32.2 40.2t41.5 57 36 48.5 13.5 17.5l0.5 1 0.3 0.2 0.2 0.3 0.2 0.3 0.3 0.2 0.5 1 0.5 1v5l-0.3 0.2-0.2 0.3h-4l-1.5-0.5-1.5-0.5-1.5-0.5q-1.5-0.5-10.5-5.5t-46.8-31.3q-37.7-26.2-62-42-24.2-15.7-46.2-26.2t-45-17.5l-23-7-1-0.5-1-0.5-1-0.5-1-0.5-0.2-0.3-0.3-0.2v-4l0.3-0.2 0.2-0.3 1.5-0.5 1.5-0.5 1-0.5 1-0.5 16-1.5q16-1.5 30-2.5t16-1.5l2-0.5 1-0.5 1-0.5 0.2-0.3 0.3-0.2 0.3-0.2 0.2-0.3 0.2-0.3 0.3-0.2v-3l-0.3-0.2-0.2-0.3-0.2-0.3-0.3-0.2-0.3-0.2-0.2-0.3-0.2-0.3-0.3-0.2-0.3-0.2-0.2-0.3-1-0.5-1-0.5-0.2-0.3q-0.3-0.2-7-3.4-6.8-3.3-35.8-12.3t-68-20-56-19-30.5-18.5-27-25.5-20.3-26.7q-6.7-11.8-9.7-24.3t-3-44.5 2.5-45 7.5-24.5 10.7-18.7q5.8-7.3 14.8-13.8t19.5-10.5 29-6.5 31.5-1.5 25.5 6 28.5 16 51.5 43 64.3 57.7q28.7 25.8 49.4 41.6 20.8 15.7 38.8 24.7t33.5 13 34 5 33.5-0.5 28.5-6 21.5-10 14.2-13.2q6.3-7.8 10.3-19.8t4.5-25-2-26-7.5-24.5-8.7-15.3l-3.8-3.7-1-0.5-1-0.5-0.2-0.3-0.3-0.2-0.3 0.2-0.2 0.3-1 0.5q-1 0.5-2 1t-5.5 6l-4.5 5.5-0.2 0.3-0.3 0.2-0.3 0.2-0.2 0.3-0.2 0.3-0.3 0.2-0.3 0.2-0.2 0.3h-2l-0.2-0.3-0.3-0.2-0.3-0.2-0.2-0.3-0.2-0.3-0.3-0.2-0.5-1-0.5-1-0.5-1.5q-0.5-1.5-5-9t-11.8-13.7l-7.2-6.3-0.2-0.3-0.3-0.2-0.3-0.2-0.2-0.3-1-0.5-1-0.5h-5l-0.2 0.3-0.3 0.2v7l4.5 16q4.5 16 4.5 20.5v4.5l-0.3 0.2-0.2 0.3h-3l-1-0.5-1-0.5-0.2-0.3-0.3-0.2-0.3-0.2-0.2-0.3-0.2-0.3-0.3-0.2-0.3-0.2-0.2-0.3-0.2-0.3-0.3-0.2-0.5-1q-0.5-1-10-15.5t-19-24-17.2-13.7l-7.8-4.3h-5l-1 0.5-1 0.5-0.2 0.3-0.3 0.2 1 9.5q1 9.5 9 37t8.3 32l0.2 4.5h-3l-0.2-1-0.3-1-0.3-0.2-0.2-0.3-0.2-0.3-0.3-0.2-0.3-0.2-0.2-0.3-0.2-0.3-0.3-0.2-0.3-0.2-0.2-0.3-0.2-0.3-0.3-0.2-0.5-1q-0.5-1-9-15.5t-20-31-18.8-23.7q-7.2-7.3-29.2-18.3t-50.5-21.5-41-12.8l-12.5-2.2 0.2 3 0.3 3 5.5 13q5.5 13 13.5 28.5t8.5 17l0.5 1.5 0.5 1 0.5 1 0.3 2.5 0.2 2.5-1.5-0.2-1.5-0.3-1-0.5-1-0.5-1-0.5-1-0.5-0.2-0.3-0.3-0.2-0.3-0.2-0.2-0.3-0.2-0.3q-0.3-0.2-9.6-8-9.2-7.7-18-19.4-8.7-11.8-21.2-37.8t-23.2-47.8l-10.8-21.7-0.2-0.3-0.3-0.2-0.5-1-0.5-1-0.3-0.2-0.2-0.3-0.2-0.3-0.3-0.2-0.3-0.2-0.2-0.3-0.2-0.3-0.3-0.2-0.3-0.2-0.2-0.3h-2l-0.2 0.3-0.3 0.2-0.3 0.2-0.2 0.3-0.2 0.3-0.3 0.2-0.5 1.5-0.5 1.5-1.5 20.5q-1.5 20.5-2 23.5l-0.5 3-0.5 1.5-0.5 1.5-0.5 1-0.5 1-0.3 0.2-0.2 0.3h-2l-1-0.5-1-0.5-0.2-0.3-0.3-0.2-0.5-1-0.5-1-0.5-1-0.5-1-0.5-1.5q-0.5-1.5-1-2.5t-4-17.5-3.5-40.5 4.5-52.5 5-39l0.5-10.5-0.3-0.2-0.2-0.3-0.2-0.3-0.3-0.2-0.3-0.2-0.2-0.3-0.2-0.3-0.3-0.2-0.3-0.2-0.2-0.3h-4l-1 0.5-1 0.5-0.2 0.3-0.3 0.2-0.3 0.2-0.2 0.3-5.8 5.7q-5.7 5.8-12.7 16.3t-7.3 10.7l-0.2 0.3-0.2 0.3-0.3 0.2-0.5 1-0.5 1-0.3 0.2-0.2 0.3-0.2 0.3-0.3 0.2-0.5 1-0.5 1-0.3 0.2-0.2 0.3-0.2 0.3-0.3 0.2-0.3 0.2-0.2 0.3-0.2 0.3-0.3 0.2v-2l0.5-2.5 0.5-2.5 0.5-2.5q0.5-2.5 1.5-8t5.5-19 13.5-29.5 21.5-32 23-29 11.5-17l1-4-0.5-1-0.5-1-0.3-0.2-0.2-0.3-0.2-0.3-0.3-0.2-0.3-0.2-0.2-0.3-1-0.5-1-0.5-1-0.5q-1-0.5-7.5-1t-11 1-14.5 8.5-24.8 22.7q-14.7 15.8-28.2 29.8l-13.5 14-0.3 0.2-0.2 0.3-0.2 0.3-0.3 0.2-0.3 0.2-0.2 0.3-0.2 0.3-0.3 0.2-0.3 0.2-0.2 0.3-0.2 0.3-0.3 0.2-0.3 0.2-0.2 0.3-1 0.5-1 0.5h-2l-0.2-0.3-0.3-0.2v-2l0.5-2 0.5-2 0.5-1.5q0.5-1.5 9.5-21l9-19.5v-8l-0.3-0.2-0.2-0.3h-2l-1 0.5-1 0.5-1 0.5-1 0.5-0.2 0.3-0.3 0.2-0.3 0.2-0.2 0.3-0.2 0.3-0.3 0.2-46.3 48.8q-46.2 48.7-58.4 59.4-12.3 10.8-12.6 11l-0.2 0.3-0.2 0.3-0.3 0.2-0.3 0.2-0.2 0.3-0.2 0.3-0.3 0.2-0.3 0.2-0.2 0.3-1 0.5-1 0.5-1 0.5-1 0.5-1 0.3-1 0.2 0.2-2 0.3-2 0.5-1 0.5-1 0.5-1 0.5-1 0.3-0.2 0.2-0.3 0.2-0.3q0.3-0.2 2.3-4.2t43.3-64.2q41.2-60.3 48-72.6l6.7-12.2 0.5-2.5 0.5-2.5v-1l-0.3-1-0.2-1-2 0.2-2 0.3-1 0.5-1 0.5-1 0.5-1 0.5-10.8 9.7q-10.7 9.8-67.2 76.8t-74.2 84.8q-17.8 17.7-21.3 20.2t-4.5 3l-1 0.5-1 0.5-1 0.5-0.2 0.3-0.3 0.2-0.3 0.2-0.2 0.3-1.5 0.5-1.5 0.5h-2l-0.2-0.3-0.3-0.2v-2l0.5-1 0.5-1 0.5-1 0.5-1 0.3-0.2 0.2-0.3 0.2-0.3 0.3-0.2 0.5-1q0.5-1 12.2-16.2 11.8-15.3 49-67 37.3-51.8 58.3-83.8l21-32 0.5-1 0.5-1 0.5-1 0.5-1 0.3-1.5 0.2-1.5-1.5 0.2-1.5 0.3-1 0.5-1 0.5-0.2 0.3-0.3 0.2-0.3 0.2-0.2 0.3-0.2 0.3-0.3 0.2-0.3 0.2-0.2 0.3-0.2 0.3-0.3 0.2-0.3 0.2-0.2 0.3-12.2 12.3q-12.3 12.2-38.3 44.2t-55.7 70.2q-29.8 38.3-51 62-21.3 23.8-37 39.6-15.8 15.7-29.3 25.7t-19 13-7 3.5l-1.5 0.5-1.5 0.5-1.5 0.5-2.5 0.3-2.5 0.2 0.2-2 0.3-2 0.5-1 0.5-1 0.3-0.2 0.2-0.3 0.2-0.3 0.3-0.2 22-23q22-23 50-60t79-109.5 67.5-92 42.2-45.3q25.8-25.7 45.3-40.7t36-24 36.5-15.5 33.5-8.5 37-1.5 40.5 4.5 34 11 34.2 18.3q17.3 11.2 32.8 25.2t19 19 3.2 7.8q-0.2 2.7-6.7 2.2t-21.5-4.5-31.5-5-26 0.5-17.3 7.2q-7.7 5.8-15.2 14.8t-9.5 14-1.5 17.5 2.2 15.7q1.8 3.3 16.3 3.3t21.5-2.5 8.2-3.8q1.3-1.2 0.8-5.2t-3.5-8.5-2.7-5.7q0.2-1.3 7.7-1.3t25.5 4 23.5 3.5 5.3-3.2q-0.3-2.8-4.3-7.8t-3.5-7 12.2 2.2q11.8 4.3 41.8 21.3t35 18.5 4.8-2.2q-0.3-3.8-11.8-29.8t-19.5-44-8.3-20q-0.2-2 2.6-0.5 2.7 1.5 30 37.3 27.2 35.7 34.7 43.7t8.5 8.5zm65.8 101.8l0.2-4.3 5 0.5q5 0.5 9.2 4.8 4.3 4.2 4.8 8.7t0 5.5l-0.5 1-0.3 0.2-0.2 0.3h-7l-1-0.5-1-0.5-0.2-0.3-0.3-0.2-0.3-0.2-0.2-0.3-1-0.5q-1-0.5-3.5-3.5l-2.5-3-0.2-0.3-0.3-0.2-0.5-1.5q-0.5-1.5-0.2-5.7z" fill-rule="evenodd" stroke="#000" stroke-width=".5"/>
 <path d="m790.8 267.8l0.2-4.3 5 0.5q5 0.5 9.2 4.8 4.3 4.2 4.8 8.7t0 5.5l-0.5 1-0.3 0.2-0.2 0.3h-7l-1-0.5-1-0.5-0.2-0.3-0.3-0.2-0.3-0.2-0.2-0.3-1-0.5q-1-0.5-3.5-3.5l-2.5-3-0.2-0.3-0.3-0.2-0.5-1.5q-0.5-1.5-0.2-5.7z" fill="#fdfdfd" fill-rule="evenodd" stroke="#fdfdfd" stroke-width=".5"/>
</svg>
